<?xml version="1.0" standalone="no"?>
<!DOCTYPE svg PUBLIC "-//W3C//DTD SVG 20010904//EN"
 "http://www.w3.org/TR/2001/REC-SVG-20010904/DTD/svg10.dtd">
<svg version="1.0" xmlns="http://www.w3.org/2000/svg"
 width="300.000000pt" height="118.000000pt" viewBox="0 0 300.000000 118.000000"
 preserveAspectRatio="xMidYMid meet">
<metadata>
Created by potrace 1.10, written by Peter Selinger 2001-2011
</metadata>
<g transform="translate(0.000000,118.000000) scale(0.100000,-0.100000)"
fill="#000000" stroke="none">
<path d="M851 843 c0 -25 1 -26 9 -8 7 15 9 10 9 -22 1 -28 -5 -49 -16 -60
-10 -10 -18 -25 -18 -33 0 -22 -54 -26 -69 -4 -12 16 -13 16 -20 -1 -5 -13 -9
-15 -20 -6 -11 9 -15 9 -18 -1 -4 -10 -8 -10 -21 1 -15 12 -17 11 -17 -3 0 -9
-5 -16 -11 -16 -5 0 -8 4 -5 9 3 5 -1 11 -9 15 -9 3 -15 0 -15 -9 0 -8 -5 -15
-11 -15 -5 0 -7 5 -4 10 8 13 -17 9 -27 -4 -4 -6 -13 -4 -22 3 -13 11 -16 11
-16 -3 0 -9 -5 -16 -11 -16 -5 0 -7 5 -4 10 3 6 0 10 -9 10 -8 0 -17 -6 -19
-12 -4 -10 -8 -9 -16 2 -10 13 -12 13 -21 0 -8 -13 -11 -13 -19 -1 -7 11 -10
10 -18 -4 -7 -12 -12 -14 -18 -6 -5 9 -10 9 -20 1 -9 -7 -15 -8 -19 -1 -9 14
-37 2 -30 -13 3 -6 -1 -3 -9 7 -13 16 -15 16 -21 1 -5 -13 -9 -14 -20 -5 -11
9 -15 9 -18 -1 -4 -10 -8 -10 -21 1 -15 12 -17 11 -17 -3 0 -9 -5 -16 -11 -16
-5 0 -7 5 -4 10 3 6 2 10 -4 10 -5 0 -12 -6 -14 -12 -3 -7 -6 -4 -6 7 0 23 36
71 46 61 4 -4 1 -11 -6 -15 -9 -6 -10 -11 -3 -15 6 -4 16 3 22 14 11 21 30 27
30 9 0 -5 -4 -7 -10 -4 -5 3 -10 1 -10 -4 0 -18 18 -12 34 11 9 12 19 18 23
14 4 -4 1 -11 -7 -16 -8 -5 -11 -12 -7 -16 4 -4 16 3 27 16 20 23 20 23 41 4
16 -14 22 -15 28 -5 6 9 11 10 15 2 10 -16 26 -13 26 5 0 8 -4 13 -9 9 -5 -3
-13 0 -16 6 -5 6 0 9 11 8 11 -2 25 0 32 4 8 5 12 2 12 -8 0 -9 -4 -13 -10
-10 -6 4 -7 -1 -3 -11 6 -15 7 -15 18 -1 9 13 14 14 25 4 10 -9 14 -9 17 1 4
10 8 10 19 1 11 -9 16 -6 25 15 14 29 29 34 29 10 0 -8 -4 -12 -10 -9 -5 3
-10 1 -10 -4 0 -14 17 -14 26 0 4 8 9 7 15 -2 4 -7 11 -10 15 -6 4 3 1 13 -6
22 -20 24 1 17 22 -7 20 -23 20 -23 48 22 4 8 12 11 16 7 5 -5 2 -12 -6 -17
-8 -5 -11 -12 -7 -16 4 -4 17 4 29 19 l22 27 17 -26 c10 -15 19 -22 23 -15 4
5 12 8 19 5 12 -4 45 42 36 50 -5 4 -649 -62 -666 -68 -13 -5 -12 -80 1 -93 3
-4 84 1 179 11 94 9 245 22 335 29 134 9 162 14 162 27 1 32 26 50 71 50 24 0
51 -5 59 -10 12 -8 11 -10 -5 -8 -11 0 -40 0 -64 0 l-43 -2 4 -40 c3 -39 -5
-53 -16 -27 -3 6 -5 3 -3 -8 1 -12 11 -21 25 -23 15 -2 23 1 21 10 -7 52 -2
56 72 64 39 4 67 10 62 13 -5 3 -12 13 -16 22 -5 15 11 18 141 24 289 15 1217
-9 1361 -35 34 -6 59 -6 64 -1 5 5 26 7 46 4 20 -3 34 -3 31 0 -9 10 -236 36
-420 48 -247 17 -1272 18 -1278 1 -2 -7 -21 -12 -44 -12 -34 0 -39 2 -33 19
10 31 -5 71 -26 71 -14 0 -19 -7 -18 -27z"/>
<path d="M1070 732 c0 -17 -5 -34 -10 -37 -6 -4 -8 -28 -4 -59 l6 -53 -68 -2
c-120 -3 -438 -31 -447 -40 -4 -4 -5 -26 -1 -47 6 -39 6 -40 52 -41 36 -1 42
1 27 8 -14 6 3 8 50 4 51 -3 64 -2 50 5 -14 7 4 9 65 6 54 -2 78 -1 65 5 -13
6 8 8 62 6 46 -1 84 2 86 6 3 11 15 11 202 5 83 -3 121 -2 85 1 -36 4 104 7
310 8 206 0 348 -4 315 -8 -44 -5 -32 -6 45 -3 58 2 100 0 95 -4 -12 -8 -14
-162 -3 -162 4 0 7 -24 6 -52 l-1 -53 -6 44 c-8 62 -26 69 -89 37 -67 -34
-124 -34 -281 0 l-121 26 -103 -22 c-56 -13 -134 -25 -173 -27 -63 -4 -80 -2
-133 23 -70 31 -77 28 -90 -37 l-9 -44 -1 42 c-1 23 5 47 12 54 17 16 11 165
-8 173 -23 8 -27 -28 -20 -158 5 -86 4 -130 -4 -145 -13 -24 0 -29 19 -6 9 11
32 15 82 15 48 0 67 3 62 11 -4 8 1 9 16 4 13 -4 20 -3 17 2 -8 13 3 14 323
14 309 0 351 -2 344 -12 -7 -12 27 -19 96 -19 48 0 71 -4 80 -15 16 -19 30
-19 30 0 0 13 9 15 51 9 51 -7 51 -7 44 17 -13 39 -48 86 -77 104 l-28 16 -1
-78 c-1 -77 -1 -77 -11 -33 -8 32 -7 76 1 150 9 73 9 106 2 108 -6 2 -11 9
-11 15 0 8 19 11 62 8 61 -5 62 -5 23 -12 -22 -4 12 -5 75 -3 74 2 106 0 90
-5 -17 -6 3 -8 60 -5 60 3 78 1 60 -6 -18 -6 -7 -8 40 -4 45 3 59 1 45 -5 -18
-9 -18 -10 6 -10 30 -1 39 14 39 64 0 31 -3 34 -37 39 -37 6 -194 18 -386 31
-76 5 -97 10 -93 20 13 36 18 85 7 85 -6 0 -11 15 -11 33 l0 32 -490 4 -490 4
0 -31z m740 12 l235 -9 -150 -5 -150 -6 143 -2 c131 -2 142 -3 142 -21 0 -10
3 -38 6 -62 l6 -44 -481 0 -481 0 0 62 0 63 98 2 97 2 -97 3 c-54 2 -98 7 -98
11 0 11 473 15 730 6z m165 -174 c239 -9 451 -23 543 -36 26 -4 42 -11 42 -20
0 -11 -10 -13 -37 -9 -93 13 -302 26 -596 36 -343 13 -827 2 -1162 -26 -212
-18 -205 -18 -205 0 0 8 5 15 11 15 6 0 97 7 202 16 368 30 808 39 1202 24z
m-844 -301 c25 -13 16 -29 -17 -29 -17 0 -24 5 -24 20 0 22 12 25 41 9z m894
-9 c0 -17 -28 -25 -53 -15 -15 6 -15 8 3 21 24 18 50 14 50 -6z m-417 -17
c-26 -2 -71 -2 -100 0 -29 2 -8 3 47 3 55 0 79 -1 53 -3z"/>
<path d="M1443 733 c42 -2 112 -2 155 0 42 1 7 3 -78 3 -85 0 -120 -2 -77 -3z"/>
<path d="M2061 746 c2 -2 92 -9 199 -15 107 -6 220 -13 250 -16 l55 -4 -48 9
c-75 13 -467 36 -456 26z"/>
<path d="M2634 714 c56 -20 56 -24 -3 -24 -29 0 -50 3 -48 8 3 4 -27 7 -66 7
-40 0 -148 3 -242 6 -184 7 -182 7 162 -17 128 -8 237 -13 243 -9 5 3 18 2 27
-3 24 -12 123 -23 123 -13 0 4 -19 18 -42 31 -33 19 -60 24 -118 26 l-75 2 39
-14z"/>
<path d="M987 310 c-30 -24 -67 -81 -67 -104 0 -13 10 -15 50 -13 l50 2 0 45
c0 25 3 55 6 68 8 27 -5 28 -39 2z"/>
</g>
</svg>
